<svg width="9" height="15" viewBox="0 0 9 15" fill="none" 
  xmlns="http://www.w3.org/2000/svg">
  <path opacity="0.8" d="M8.4375 6.4375C8.4375 5.23438 7.89062 4.16797 7.01562 3.42969C7.09766 3.40234 7.15234 3.34766 7.23438 3.29297C7.89062 2.69141 8.30078 1.95312 8.41016 1.13281C8.4375 0.941406 8.27344 0.75 8.08203 0.75H6.96094C6.82422 0.75 6.6875 0.886719 6.66016 1.02344C6.57812 1.37891 6.38672 1.70703 6.08594 1.95312C5.67578 2.30859 5.10156 2.5 4.5 2.5C3.87109 2.5 3.32422 2.30859 2.88672 1.95312C2.58594 1.70703 2.39453 1.37891 2.3125 1.02344C2.28516 0.886719 2.14844 0.75 2.01172 0.75H0.890625C0.699219 0.75 0.535156 0.941406 0.5625 1.13281C0.671875 1.95312 1.08203 2.69141 1.76562 3.29297C1.82031 3.34766 1.875 3.40234 1.95703 3.42969C1.08203 4.16797 0.5625 5.23438 0.5625 6.4375C0.5625 8.32422 1.84766 9.88281 3.625 10.293V11.6875H2.64062C2.44922 11.6875 2.3125 11.8516 2.3125 12.0156V13.1094C2.3125 13.3008 2.44922 13.4375 2.64062 13.4375H3.625V14.4219C3.625 14.6133 3.76172 14.75 3.95312 14.75H5.04688C5.21094 14.75 5.375 14.6133 5.375 14.4219V13.4375H6.35938C6.52344 13.4375 6.6875 13.3008 6.6875 13.1094V12.0156C6.6875 11.8516 6.52344 11.6875 6.35938 11.6875H5.375V10.293C7.125 9.88281 8.4375 8.32422 8.4375 6.4375ZM2.3125 6.4375C2.3125 5.23438 3.26953 4.25 4.5 4.25C5.70312 4.25 6.6875 5.23438 6.6875 6.4375C6.6875 7.66797 5.70312 8.625 4.5 8.625C3.26953 8.625 2.3125 7.66797 2.3125 6.4375Z" fill="#F0729F"/>
</svg>
