<svg width="11" height="11" viewBox="0 0 11 11" fill="none" 
  xmlns="http://www.w3.org/2000/svg">
  <path opacity="0.8" d="M10.4219 0.5C10.6406 0.5 10.75 0.609375 10.75 0.828125V2.98828C10.75 3.13411 10.6771 3.23438 10.5312 3.28906C10.4036 3.34375 10.2943 3.32552 10.2031 3.23438L9.73828 2.76953L7.52344 4.95703C7.92448 5.59505 8.125 6.29688 8.125 7.0625C8.125 8.15625 7.74219 9.08594 6.97656 9.85156C6.21094 10.6172 5.28125 11 4.1875 11C3.09375 11 2.16406 10.6172 1.39844 9.85156C0.632812 9.08594 0.25 8.15625 0.25 7.0625C0.25 5.96875 0.632812 5.03906 1.39844 4.27344C2.16406 3.50781 3.09375 3.125 4.1875 3.125C4.95312 3.125 5.65495 3.32552 6.29297 3.72656L8.48047 1.51172L8.01562 1.04688C7.92448 0.955729 7.90625 0.846354 7.96094 0.71875C8.01562 0.572917 8.11589 0.5 8.26172 0.5H10.4219ZM2.62891 8.62109C3.06641 9.04036 3.58594 9.25 4.1875 9.25C4.78906 9.25 5.29948 9.04036 5.71875 8.62109C6.15625 8.18359 6.375 7.66406 6.375 7.0625C6.375 6.46094 6.15625 5.95052 5.71875 5.53125C5.29948 5.09375 4.78906 4.875 4.1875 4.875C3.58594 4.875 3.06641 5.09375 2.62891 5.53125C2.20964 5.95052 2 6.46094 2 7.0625C2 7.66406 2.20964 8.18359 2.62891 8.62109Z" fill="#6C79DB"/>
</svg>
