<svg width="398" height="400" viewBox="0 0 398 400" fill="none" xmlns="http://www.w3.org/2000/svg">
<path fill-rule="evenodd" clip-rule="evenodd" d="M131.6 218.902C130.966 216.64 128.953 215 126.604 215H4.95345C2.04428 215 -0.256361 217.475 0.0399251 220.369C2.01334 239.645 6.78137 258.568 14.2241 276.537C24.275 300.802 39.0069 322.85 57.5786 341.421C76.1503 359.993 98.1982 374.725 122.463 384.776C146.728 394.827 172.736 400 199 400C225.264 400 251.272 394.827 275.537 384.776C299.802 374.725 321.85 359.993 340.421 341.421C358.993 322.85 373.725 300.802 383.776 276.537C391.219 258.568 395.987 239.645 397.96 220.369C398.256 217.475 395.956 215 393.047 215H271.396C269.047 215 267.034 216.64 266.4 218.902C265.65 221.577 264.739 224.21 263.672 226.788C260.154 235.281 254.998 242.997 248.497 249.497C241.997 255.998 234.281 261.154 225.788 264.672C217.295 268.189 208.193 270 199 270C189.807 270 180.705 268.189 172.212 264.672C163.719 261.154 156.003 255.998 149.503 249.497C143.002 242.997 137.846 235.281 134.328 226.788C133.261 224.21 132.35 221.577 131.6 218.902Z" fill="white"/>
<path fill-rule="evenodd" clip-rule="evenodd" d="M0.0399251 179.631C-0.256361 182.525 2.04428 185 4.95346 185H126.604C128.953 185 130.966 183.36 131.6 181.098C132.35 178.423 133.261 175.79 134.328 173.212C137.846 164.719 143.002 157.003 149.503 150.503C156.003 144.002 163.719 138.846 172.212 135.328C180.705 131.811 189.807 130 199 130C208.193 130 217.295 131.811 225.788 135.328C234.281 138.846 241.997 144.002 248.497 150.503C254.998 157.003 260.154 164.719 263.672 173.212C264.739 175.79 265.65 178.423 266.4 181.098C267.034 183.36 269.047 185 271.396 185H393.047C395.956 185 398.256 182.525 397.96 179.631C395.987 160.355 391.219 141.432 383.776 123.463C373.725 99.1982 358.993 77.1504 340.421 58.5787C321.85 40.0069 299.802 25.275 275.537 15.2241C251.272 5.17316 225.264 3.44416e-06 199 0C172.736 -3.44415e-06 146.728 5.17315 122.463 15.2241C98.1982 25.275 76.1504 40.0069 57.5787 58.5786C39.0069 77.1503 24.275 99.1982 14.2241 123.463C6.78138 141.432 2.01334 160.355 0.0399251 179.631Z" fill="#E66C62"/>
<circle cx="199.5" cy="200.5" r="42.5" fill="white"/>
</svg>
