<svg width="249" height="250" viewBox="0 0 249 250" fill="none" xmlns="http://www.w3.org/2000/svg">
  <path opacity="1" d="M249 135.152H184.391C179.524 163.828 154.562 185.664 124.5 185.664C94.438 185.664 69.4759 163.828 64.6088 135.152H0C5.20826 199.351 58.9595 249.827 124.5 249.827C190.041 249.827 243.792 199.351 249 135.152ZM248.882 113.31H184.143C178.727 85.3086 154.083 64.1633 124.5 64.1633C94.9169 64.1633 70.2725 85.3086 64.8567 113.31H0.118249C5.97203 49.762 59.4247 0 124.5 0C189.575 0 243.028 49.762 248.882 113.31ZM166.25 124.914C166.25 147.972 147.558 166.664 124.5 166.664C101.442 166.664 82.7497 147.972 82.7497 124.914C82.7497 101.856 101.442 83.1633 124.5 83.1633C147.558 83.1633 166.25 101.856 166.25 124.914Z" fill="white"/>
</svg>
